<svg width="75" height="26" viewBox="0 0 75 26" fill="none" xmlns="http://www.w3.org/2000/svg">
    <path d="M6.65113 6.29666L5.26879 3.00708L3.89429 6.29666H6.65113Z" fill="white"/>
    <path d="M37.1373 5.04585C36.8597 5.21038 36.5316 5.21575 36.1382 5.21575H33.6846V3.38257H36.1716C36.5236 3.38257 36.8908 3.39806 37.1295 3.5314C37.3914 3.65172 37.5534 3.90766 37.5534 4.26099C37.5534 4.62176 37.3994 4.91209 37.1373 5.04585Z" fill="white"/>
    <path d="M63.0614 0.000413696V1.35983L62.2758 0.000413696H56.5181V1.35983L55.7966 0.000413696H48.019C46.7172 0.000413696 45.5728 0.178061 44.6486 0.67248V0.000413696H39.2814V0.67248C38.6932 0.162775 37.8916 0.000413696 37.0004 0.000413696H17.392L16.0765 2.97354L14.7254 0.000413696H8.54945V1.35983L7.87098 0.000413696H2.60392L0.157959 5.47321V9.85078L3.77485 1.59759H6.77565L10.2108 9.41172V1.59759H13.5073L16.1506 7.19639L18.5785 1.59759H21.9414V9.85078H19.871L19.8631 3.38698L16.9346 9.85078H15.1612L12.2248 3.3813V9.85078H8.11679L7.34082 8.01006H3.13552L2.3515 9.85078H0.157959V11.5111H0.158062V11.5113H3.60908L4.38732 9.67799H6.1292L6.90527 11.5111H13.6952V10.1096L14.3013 11.517H17.8264L18.4324 10.0885V11.511H35.3068L35.2988 8.502H35.6254C35.854 8.50975 35.9208 8.5303 35.9208 8.89882V11.511H44.6483V10.8105C45.352 11.1789 46.447 11.511 47.8878 11.511H51.5595L52.345 9.67789H54.0871L54.8555 11.511H61.9311V9.76971L63.0023 11.511H68.6724V0H63.0609L63.0614 0.000413696ZM30.1821 3.31634H25.4548V4.80403H30.0688V6.49582H25.4548V8.14402H30.1821V9.85078H23.435V1.59759H30.1821V3.31634ZM39.2665 6.71519C39.5516 7.12564 39.6009 7.4924 39.6009 8.22954V9.85078H37.5634L37.5557 8.80999C37.5557 8.31341 37.6044 7.5991 37.2369 7.20197C36.9419 6.91174 36.4921 6.84884 35.7649 6.84884H33.5968V9.85068H31.5772V1.59749H36.2227C37.2548 1.59749 38.015 1.62424 38.6683 1.99296C39.3074 2.36158 39.6904 2.8999 39.6904 3.82026C39.6904 5.1364 38.7913 5.81611 38.2673 6.0202C38.7092 6.18463 39.0866 6.47475 39.2665 6.71519ZM40.8687 9.85078V1.59759H42.9292V9.85078H40.8687ZM66.8538 9.85068L63.9915 9.85078L60.1629 3.65614V9.85058H56.0495L55.2636 8.00986H51.0679L50.3056 9.85058H47.9421C46.96 9.85058 45.7172 9.63854 45.0134 8.93786C44.3036 8.23708 43.9344 7.2879 43.9344 5.78709C43.9344 4.56318 44.1552 3.4441 45.0232 2.55989C45.6762 1.90135 46.6989 1.59739 48.0906 1.59739H50.0457V3.36601H48.1314C47.3941 3.36601 46.978 3.47302 46.5772 3.85496C46.2331 4.2023 45.9965 4.85929 45.9965 5.72439C45.9965 6.60871 46.1765 7.24597 46.552 7.66272C46.8629 7.9892 47.4277 8.08835 47.9597 8.08835H48.8667L51.7132 1.5978H54.7399L58.1592 9.40408V1.5978H61.2345L64.7848 7.34564V1.5978H66.8538V9.85068Z" fill="white"/>
    <path d="M54.5767 6.29666L53.1793 3.00708L51.7891 6.29666H54.5767Z" fill="white"/>
    <path d="M26.2232 22.3975H21.2573V20.7543H25.6913V19.0708H21.2573V17.5701H26.3213L28.5306 19.9755L26.2232 22.3975Z" fill="white"/>
    <path d="M34.2246 23.3425L31.124 19.9796L34.2246 16.7241V23.3425Z" fill="white"/>
    <path d="M38.8115 19.6718H36.2014V17.5696H38.835C39.5641 17.5696 40.0703 17.8599 40.0703 18.5819C40.0702 19.2957 39.5874 19.6719 38.8115 19.6718Z" fill="white"/>
    <path d="M48.7516 19.2535C48.4817 19.4101 48.1474 19.4234 47.7544 19.4234H45.301V17.5696H47.7881C48.1474 17.5696 48.5075 17.5769 48.7518 17.7185C49.0136 17.8521 49.1702 18.108 49.1702 18.4611C49.1702 18.8141 49.0136 19.0988 48.7518 19.2535H48.7516Z" fill="white"/>
    <path d="M74.9959 23.0286V23.0284C74.5055 23.729 73.549 24.0845 72.255 24.0845H68.3545V22.3142H72.2389C72.6244 22.3142 72.8943 22.2647 73.0564 22.1098C73.2098 21.9716 73.2964 21.7759 73.2952 21.5714C73.2952 21.331 73.1972 21.1398 73.0483 21.0255C72.9018 20.8994 72.6887 20.8426 72.3366 20.8426C70.4403 20.7797 68.0742 20.8997 68.0742 18.2873C68.0742 17.0897 68.8524 15.8298 70.9722 15.8298H74.9954V14.1871H71.2574C70.1294 14.1871 69.3101 14.451 68.7294 14.8612V14.1871H63.2007C62.3166 14.1871 61.2788 14.4013 60.7879 14.8612V14.1871H50.9148V14.8612C50.1292 14.3078 48.8032 14.1871 48.1912 14.1871H41.6789V14.8612C41.0573 14.2735 39.6747 14.1871 38.8322 14.1871H31.5436L29.8758 15.9501L28.3136 14.1871H17.4265V25.7064H28.1091L29.8277 23.9154L31.4468 25.7064L38.0316 25.7118V23.0024H38.6791C39.5528 23.0155 40.5832 22.9815 41.4922 22.5974V25.7061H46.9232V22.704H47.1855C47.5196 22.704 47.5528 22.7175 47.5528 23.0439V25.7057H64.0524C65.1 25.7057 66.1946 25.4438 66.801 24.9687V25.7057H72.0346C73.1237 25.7057 74.1874 25.5568 74.9967 25.1751V23.0291H74.9963L74.9959 23.0286ZM38.764 21.3646H36.2439V24.1336H32.3182L29.8311 21.4008L27.2466 24.1336H19.2462V15.8781H27.3696L29.8547 18.5844L32.4237 15.8781H38.8777C40.4803 15.8781 42.2811 16.3116 42.2811 18.5978C42.2811 20.8912 40.5294 21.3646 38.764 21.3646ZM50.8833 20.9902C51.1683 21.3928 51.2097 21.7691 51.2178 22.4971V24.1336H49.19V23.1005C49.19 22.6042 49.2393 21.8685 48.8636 21.4845C48.5685 21.1889 48.1187 21.1183 47.3818 21.1183H45.2232V24.1332H43.1939V15.878H47.8569C48.8794 15.878 49.6241 15.9223 50.2872 16.2676C50.9245 16.6435 51.3253 17.1591 51.3253 18.1006C51.3252 19.4183 50.4255 20.0906 49.894 20.297C50.3436 20.4591 50.7109 20.7496 50.8833 20.9902ZM59.2267 17.5853H54.4969V19.0861H59.1112V20.7703H54.4969V22.4132L59.2267 22.4202V24.1333H52.4855V15.878H59.2267V17.5853ZM64.4166 24.133H60.4829V22.3627H64.4011C64.784 22.3627 65.056 22.3134 65.226 22.1583C65.3647 22.0309 65.4647 21.8454 65.4647 21.6202C65.4647 21.3795 65.3566 21.1883 65.218 21.0742C65.0635 20.9481 64.8507 20.8913 64.4987 20.8913C62.6099 20.8284 60.2446 20.9482 60.2446 18.3358C60.2446 17.1386 61.0148 15.8782 63.1322 15.8782H67.1814V17.6354H63.4767C63.1091 17.6354 62.8703 17.6489 62.6672 17.7843C62.4458 17.918 62.3638 18.1166 62.3638 18.3784C62.3638 18.6897 62.5516 18.9013 62.8055 18.9932C63.0186 19.0657 63.2477 19.0866 63.5916 19.0866L64.6788 19.1152C65.7751 19.1413 66.528 19.3266 66.9856 19.7792C67.3786 20.1767 67.5895 20.6784 67.5895 21.5283C67.5895 23.304 66.4535 24.133 64.4166 24.133Z" fill="white"/>
    <path d="M75.0001 17.5701H71.3186C70.9512 17.5701 70.7069 17.5834 70.5015 17.719C70.2883 17.8525 70.2065 18.0514 70.2065 18.3131C70.2065 18.6245 70.3862 18.8365 70.6478 18.9279C70.8608 19.0004 71.0897 19.0217 71.426 19.0217L72.5211 19.05C73.6255 19.0769 74.3628 19.2621 74.8125 19.7147C74.8945 19.7777 74.9438 19.8481 75.0001 19.9191V17.5701Z" fill="white"/>
</svg>
